<svg width="636" height="223" viewBox="0 0 636 223" fill="none" xmlns="http://www.w3.org/2000/svg">
<path d="M46.3879 179.086C39.2982 179.086 32.8199 177.562 26.9527 174.512C21.2077 171.462 16.6239 167.01 13.2013 161.155C9.90099 155.178 8.25082 147.92 8.25082 139.381C8.25082 130.964 10.0232 123.706 13.568 117.607C17.1128 111.386 21.8188 106.629 27.6861 103.335C33.6756 100.041 40.215 98.3947 47.3047 98.3947C54.3943 98.3947 60.3836 100.041 65.2731 103.335C70.1626 106.506 73.8906 110.288 76.4575 114.679L75.3574 117.607L77.0076 101.505H92.7758V177.257H75.7241V157.495L77.5576 161.887C77.0686 163.107 75.9685 164.692 74.2573 166.644C72.6682 168.474 70.4679 170.365 67.6567 172.316C64.9674 174.268 61.8504 175.915 58.3057 177.257C54.761 178.477 50.7883 179.086 46.3879 179.086ZM50.9717 164.997C55.2498 164.997 59.1002 164.205 62.5228 162.619C65.9455 161.033 68.7568 158.837 70.957 156.032C73.2795 153.104 74.8684 149.628 75.7241 145.602V130.781C74.7463 127.122 73.0349 123.95 70.5903 121.267C68.1457 118.461 65.2121 116.326 61.7894 114.862C58.3668 113.277 54.5777 112.484 50.4216 112.484C45.8989 112.484 41.7431 113.582 37.9537 115.777C34.1644 117.973 31.1087 121.023 28.7862 124.926C26.586 128.829 25.4858 133.404 25.4858 138.649C25.4858 143.528 26.6471 147.981 28.9695 152.006C31.2921 156.032 34.409 159.203 38.3204 161.521C42.2318 163.839 46.4489 164.997 50.9717 164.997ZM158.771 214.766C153.148 214.766 148.197 214.095 143.919 212.754C139.641 211.534 135.73 209.765 132.185 207.447C128.762 205.13 125.462 202.507 122.284 199.58L132.185 188.052C136.219 191.834 140.313 194.761 144.469 196.835C148.625 198.909 153.27 199.945 158.404 199.945C164.149 199.945 168.977 198.97 172.889 197.018C176.923 195.188 179.979 192.566 182.056 189.15C184.134 185.856 185.173 182.014 185.173 177.623L185.357 157.129L186.824 160.423C184.623 165.668 180.651 170.121 174.906 173.78C169.161 177.318 162.193 179.086 154.004 179.086C147.036 179.086 140.619 177.318 134.752 173.78C129.007 170.243 124.362 165.485 120.817 159.508C117.394 153.409 115.683 146.578 115.683 139.015C115.683 131.086 117.517 124.133 121.184 118.156C124.851 112.057 129.679 107.238 135.669 103.701C141.658 100.164 148.197 98.3947 155.287 98.3947C162.01 98.3947 168.122 99.7976 173.622 102.603C179.245 105.287 183.34 108.763 185.907 113.033L184.99 116.143L186.824 101.505H202.408V177.806C202.408 184.637 200.636 190.858 197.091 196.469C193.547 202.08 188.535 206.533 182.056 209.826C175.578 213.12 167.816 214.766 158.771 214.766ZM132.735 138.649C132.735 143.528 133.896 147.981 136.219 152.006C138.541 156.032 141.658 159.203 145.57 161.521C149.603 163.839 154.065 164.997 158.954 164.997C163.477 164.997 167.511 164.205 171.055 162.619C174.722 160.911 177.778 158.654 180.223 155.849C182.668 152.921 184.379 149.567 185.357 145.785V130.781C184.257 127.122 182.423 123.95 179.856 121.267C177.289 118.461 174.233 116.326 170.689 114.862C167.144 113.277 163.232 112.484 158.954 112.484C154.065 112.484 149.603 113.582 145.57 115.777C141.658 117.973 138.541 121.084 136.219 125.109C133.896 129.012 132.735 133.526 132.735 138.649ZM247.083 101.505L248.733 123.462L247.817 120.535C249.772 115.899 252.584 111.996 256.251 108.824C260.04 105.531 263.951 103.03 267.985 101.322C272.141 99.4926 275.747 98.5777 278.803 98.5777L277.886 115.411C272.141 115.045 267.068 116.143 262.668 118.705C258.39 121.267 254.967 124.682 252.4 128.951C249.956 133.221 248.733 137.795 248.733 142.675V177.257H231.865V101.505H247.083ZM290.979 138.649C290.979 131.086 292.749 124.255 296.296 118.156C299.963 112.057 304.973 107.238 311.331 103.701C317.685 100.164 324.899 98.3947 332.966 98.3947C341.277 98.3947 348.551 100.164 354.785 103.701C361.019 107.238 365.846 112.057 369.27 118.156C372.69 124.255 374.403 131.086 374.403 138.649C374.403 146.212 372.69 153.104 369.27 159.325C365.846 165.424 360.956 170.243 354.602 173.78C348.368 177.318 341.094 179.086 332.783 179.086C324.715 179.086 317.502 177.44 311.147 174.146C304.913 170.73 299.963 166.034 296.296 160.057C292.749 153.958 290.979 146.822 290.979 138.649ZM308.03 138.832C308.03 143.711 309.13 148.164 311.331 152.189C313.531 156.093 316.464 159.203 320.131 161.521C323.919 163.839 328.076 164.997 332.599 164.997C337.366 164.997 341.584 163.839 345.251 161.521C349.038 159.203 351.972 156.093 354.051 152.189C356.128 148.164 357.168 143.711 357.168 138.832C357.168 133.953 356.128 129.561 354.051 125.658C351.972 121.632 349.038 118.461 345.251 116.143C341.584 113.704 337.366 112.484 332.599 112.484C327.953 112.484 323.735 113.704 319.948 116.143C316.281 118.583 313.347 121.815 311.147 125.841C309.067 129.744 308.03 134.075 308.03 138.832ZM397.491 101.505H414.543V177.257H397.491V101.505ZM396.208 74.0591C396.208 71.3754 397.245 69.1188 399.325 67.2891C401.525 65.4593 403.909 64.5445 406.476 64.5445C409.042 64.5445 411.303 65.4593 413.26 67.2891C415.337 69.1188 416.377 71.3754 416.377 74.0591C416.377 76.8646 415.337 79.1824 413.26 81.0122C411.303 82.7198 409.042 83.5738 406.476 83.5738C403.909 83.5738 401.525 82.6589 399.325 80.8292C397.245 78.9994 396.208 76.7429 396.208 74.0591ZM490.25 179.086C483.283 179.086 477.109 177.562 471.731 174.512C466.474 171.462 462.257 167.62 459.08 162.985L461.097 157.678V177.257H444.045V35.6345H460.914V118.888L460.364 112.484C463.418 108.336 467.758 104.982 473.382 102.42C479.126 99.7364 485.483 98.3947 492.45 98.3947C499.294 98.3947 505.528 100.041 511.152 103.335C516.773 106.629 521.236 111.264 524.537 117.241C527.957 123.096 529.67 130.11 529.67 138.283C529.67 146.822 527.837 154.141 524.17 160.24C520.623 166.339 515.856 171.036 509.869 174.329C503.878 177.501 497.338 179.086 490.25 179.086ZM486.766 164.631C491.654 164.631 496.054 163.473 499.968 161.155C503.878 158.837 506.935 155.727 509.135 151.823C511.335 147.798 512.435 143.223 512.435 138.1C512.435 133.221 511.272 128.829 508.952 124.926C506.752 120.901 503.695 117.729 499.784 115.411C495.994 113.094 491.654 111.935 486.766 111.935C482.609 111.935 478.759 112.728 475.215 114.313C471.668 115.899 468.675 118.095 466.231 120.901C463.784 123.584 462.074 126.756 461.097 130.415V145.602C462.074 149.262 463.724 152.555 466.048 155.483C468.368 158.288 471.302 160.545 474.848 162.253C478.392 163.839 482.366 164.631 486.766 164.631ZM552.73 101.505H569.781V177.257H552.73V101.505Z" fill="#4DA550"/>
<path d="M626.893 47.9105C502.334 78.2519 589.89 128.418 552.524 53.3931C520.741 -10.421 581.149 74.6107 572.262 62.6668C559.288 45.2287 587.406 81.0231 561.327 47.8802C583.656 175.564 521.978 25.0445 626.893 47.9105Z" fill="#4DA550"/>
</svg>
